<?xml version="1.0" encoding="UTF-8" standalone="no"?>
<!DOCTYPE svg PUBLIC "-//W3C//DTD SVG 1.1//EN"
 "http://www.w3.org/Graphics/SVG/1.1/DTD/svg11.dtd">
<!-- Generated by graphviz version 2.43.0 (0)
 -->
<!-- Title: dns_header_detailed_structure Pages: 1 -->
<svg width="742pt" height="444pt"
 viewBox="0.00 0.00 742.00 444.00" xmlns="http://www.w3.org/2000/svg" xmlns:xlink="http://www.w3.org/1999/xlink">
<g id="graph0" class="graph" transform="scale(1 1) rotate(0) translate(4 440)">
<title>dns_header_detailed_structure</title>
<polygon fill="white" stroke="transparent" points="-4,4 -4,-440 738,-440 738,4 -4,4"/>
<text text-anchor="middle" x="367" y="-420.8" font-family="Times,serif" font-size="14.00">DNS Header Structure</text>
<!-- header_structure -->
<g id="node1" class="node">
<title>header_structure</title>
<polygon fill="whitesmoke" stroke="transparent" points="8,-381.5 8,-408.5 247,-408.5 247,-381.5 8,-381.5"/>
<polygon fill="none" stroke="black" points="8,-381.5 8,-408.5 247,-408.5 247,-381.5 8,-381.5"/>
<text text-anchor="start" x="72.5" y="-392.3" font-family="Helvetica,sans-Serif" font-weight="bold" font-size="14.00">Field Description</text>
<polygon fill="whitesmoke" stroke="transparent" points="247,-381.5 247,-408.5 323,-408.5 323,-381.5 247,-381.5"/>
<polygon fill="none" stroke="black" points="247,-381.5 247,-408.5 323,-408.5 323,-381.5 247,-381.5"/>
<text text-anchor="start" x="253" y="-392.3" font-family="Helvetica,sans-Serif" font-weight="bold" font-size="14.00">Size (bits)</text>
<polygon fill="lightblue" stroke="transparent" points="323,-381.5 323,-408.5 540,-408.5 540,-381.5 323,-381.5"/>
<polygon fill="none" stroke="black" points="323,-381.5 323,-408.5 540,-408.5 540,-381.5 323,-381.5"/>
<text text-anchor="start" x="360" y="-392.3" font-family="Helvetica,sans-Serif" font-weight="bold" font-size="14.00">Expected Query Value</text>
<polygon fill="lightgreen" stroke="transparent" points="540,-381.5 540,-408.5 726,-408.5 726,-381.5 540,-381.5"/>
<polygon fill="none" stroke="black" points="540,-381.5 540,-408.5 726,-408.5 726,-381.5 540,-381.5"/>
<text text-anchor="start" x="549" y="-392.3" font-family="Helvetica,sans-Serif" font-weight="bold" font-size="14.00">Expected Response Value</text>
<polygon fill="none" stroke="black" points="8,-354.5 8,-381.5 247,-381.5 247,-354.5 8,-354.5"/>
<text text-anchor="start" x="14" y="-364.3" font-family="Helvetica,sans-Serif" font-size="14.00">Packet Identifier (ID)</text>
<polygon fill="none" stroke="black" points="247,-354.5 247,-381.5 323,-381.5 323,-354.5 247,-354.5"/>
<text text-anchor="start" x="277" y="-364.3" font-family="Helvetica,sans-Serif" font-size="14.00">16</text>
<polygon fill="none" stroke="black" points="323,-354.5 323,-381.5 540,-381.5 540,-354.5 323,-354.5"/>
<text text-anchor="start" x="401" y="-364.3" font-family="Helvetica,sans-Serif" font-size="14.00">e.g., 1234</text>
<polygon fill="none" stroke="black" points="540,-354.5 540,-381.5 726,-381.5 726,-354.5 540,-354.5"/>
<text text-anchor="start" x="557" y="-364.3" font-family="Helvetica,sans-Serif" font-size="14.00">1234 (must match query)</text>
<polygon fill="lightyellow" stroke="transparent" points="8,-327.5 8,-354.5 247,-354.5 247,-327.5 8,-327.5"/>
<polygon fill="none" stroke="black" points="8,-327.5 8,-354.5 247,-354.5 247,-327.5 8,-327.5"/>
<text text-anchor="start" x="14" y="-338.3" font-family="Helvetica,sans-Serif" font-weight="bold" font-size="14.00">Flags (see detail below)</text>
<polygon fill="lightyellow" stroke="transparent" points="247,-327.5 247,-354.5 323,-354.5 323,-327.5 247,-327.5"/>
<polygon fill="none" stroke="black" points="247,-327.5 247,-354.5 323,-354.5 323,-327.5 247,-327.5"/>
<text text-anchor="start" x="277" y="-338.3" font-family="Helvetica,sans-Serif" font-weight="bold" font-size="14.00">16</text>
<polygon fill="lightyellow" stroke="transparent" points="323,-327.5 323,-354.5 540,-354.5 540,-327.5 323,-327.5"/>
<polygon fill="none" stroke="black" points="323,-327.5 323,-354.5 540,-354.5 540,-327.5 323,-327.5"/>
<text text-anchor="start" x="344.5" y="-338.3" font-family="Helvetica,sans-Serif" font-weight="bold" font-size="14.00">0x0000 (based on your list)</text>
<polygon fill="lightyellow" stroke="transparent" points="540,-327.5 540,-354.5 726,-354.5 726,-327.5 540,-327.5"/>
<polygon fill="none" stroke="black" points="540,-327.5 540,-354.5 726,-354.5 726,-327.5 540,-327.5"/>
<text text-anchor="start" x="546" y="-338.3" font-family="Helvetica,sans-Serif" font-weight="bold" font-size="14.00">0x8000 (based on your list)</text>
<polygon fill="none" stroke="black" points="8,-300.5 8,-327.5 247,-327.5 247,-300.5 8,-300.5"/>
<text text-anchor="start" x="14" y="-310.3" font-family="Helvetica,sans-Serif" font-size="14.00">    Query/Response (QR)</text>
<polygon fill="none" stroke="black" points="247,-300.5 247,-327.5 323,-327.5 323,-300.5 247,-300.5"/>
<text text-anchor="start" x="281" y="-310.3" font-family="Helvetica,sans-Serif" font-size="14.00">1</text>
<polygon fill="none" stroke="black" points="323,-300.5 323,-327.5 540,-327.5 540,-300.5 323,-300.5"/>
<text text-anchor="start" x="393.5" y="-310.3" font-family="Helvetica,sans-Serif" font-size="14.00">0 (Question)</text>
<polygon fill="#aaffaa" stroke="transparent" points="540,-300.5 540,-327.5 726,-327.5 726,-300.5 540,-300.5"/>
<polygon fill="none" stroke="black" points="540,-300.5 540,-327.5 726,-327.5 726,-300.5 540,-300.5"/>
<text text-anchor="start" x="605.5" y="-310.3" font-family="Helvetica,sans-Serif" font-size="14.00">1 (Reply)</text>
<polygon fill="none" stroke="black" points="8,-273.5 8,-300.5 247,-300.5 247,-273.5 8,-273.5"/>
<text text-anchor="start" x="14" y="-283.3" font-family="Helvetica,sans-Serif" font-size="14.00">    Operation Code (OPCODE)</text>
<polygon fill="none" stroke="black" points="247,-273.5 247,-300.5 323,-300.5 323,-273.5 247,-273.5"/>
<text text-anchor="start" x="281" y="-283.3" font-family="Helvetica,sans-Serif" font-size="14.00">4</text>
<polygon fill="none" stroke="black" points="323,-273.5 323,-300.5 540,-300.5 540,-273.5 323,-273.5"/>
<text text-anchor="start" x="373" y="-283.3" font-family="Helvetica,sans-Serif" font-size="14.00">0 (Standard Query)</text>
<polygon fill="none" stroke="black" points="540,-273.5 540,-300.5 726,-300.5 726,-273.5 540,-273.5"/>
<text text-anchor="start" x="629" y="-283.3" font-family="Helvetica,sans-Serif" font-size="14.00">0</text>
<polygon fill="none" stroke="black" points="8,-246.5 8,-273.5 247,-273.5 247,-246.5 8,-246.5"/>
<text text-anchor="start" x="14" y="-256.3" font-family="Helvetica,sans-Serif" font-size="14.00">    Authoritative Answer (AA)</text>
<polygon fill="none" stroke="black" points="247,-246.5 247,-273.5 323,-273.5 323,-246.5 247,-246.5"/>
<text text-anchor="start" x="281" y="-256.3" font-family="Helvetica,sans-Serif" font-size="14.00">1</text>
<polygon fill="none" stroke="black" points="323,-246.5 323,-273.5 540,-273.5 540,-246.5 323,-246.5"/>
<text text-anchor="start" x="427.5" y="-256.3" font-family="Helvetica,sans-Serif" font-size="14.00">0</text>
<polygon fill="none" stroke="black" points="540,-246.5 540,-273.5 726,-273.5 726,-246.5 540,-246.5"/>
<text text-anchor="start" x="629" y="-256.3" font-family="Helvetica,sans-Serif" font-size="14.00">0</text>
<polygon fill="none" stroke="black" points="8,-219.5 8,-246.5 247,-246.5 247,-219.5 8,-219.5"/>
<text text-anchor="start" x="14" y="-229.3" font-family="Helvetica,sans-Serif" font-size="14.00">    Truncation (TC)</text>
<polygon fill="none" stroke="black" points="247,-219.5 247,-246.5 323,-246.5 323,-219.5 247,-219.5"/>
<text text-anchor="start" x="281" y="-229.3" font-family="Helvetica,sans-Serif" font-size="14.00">1</text>
<polygon fill="none" stroke="black" points="323,-219.5 323,-246.5 540,-246.5 540,-219.5 323,-219.5"/>
<text text-anchor="start" x="427.5" y="-229.3" font-family="Helvetica,sans-Serif" font-size="14.00">0</text>
<polygon fill="none" stroke="black" points="540,-219.5 540,-246.5 726,-246.5 726,-219.5 540,-219.5"/>
<text text-anchor="start" x="629" y="-229.3" font-family="Helvetica,sans-Serif" font-size="14.00">0</text>
<polygon fill="none" stroke="black" points="8,-192.5 8,-219.5 247,-219.5 247,-192.5 8,-192.5"/>
<text text-anchor="start" x="14" y="-202.3" font-family="Helvetica,sans-Serif" font-size="14.00">    Recursion Desired (RD)</text>
<polygon fill="none" stroke="black" points="247,-192.5 247,-219.5 323,-219.5 323,-192.5 247,-192.5"/>
<text text-anchor="start" x="281" y="-202.3" font-family="Helvetica,sans-Serif" font-size="14.00">1</text>
<polygon fill="none" stroke="black" points="323,-192.5 323,-219.5 540,-219.5 540,-192.5 323,-192.5"/>
<text text-anchor="start" x="386" y="-202.3" font-family="Helvetica,sans-Serif" font-size="14.00">0 (per your list)</text>
<polygon fill="none" stroke="black" points="540,-192.5 540,-219.5 726,-219.5 726,-192.5 540,-192.5"/>
<text text-anchor="start" x="629" y="-202.3" font-family="Helvetica,sans-Serif" font-size="14.00">0</text>
<polygon fill="none" stroke="black" points="8,-165.5 8,-192.5 247,-192.5 247,-165.5 8,-165.5"/>
<text text-anchor="start" x="14" y="-175.3" font-family="Helvetica,sans-Serif" font-size="14.00">    Recursion Available (RA)</text>
<polygon fill="none" stroke="black" points="247,-165.5 247,-192.5 323,-192.5 323,-165.5 247,-165.5"/>
<text text-anchor="start" x="281" y="-175.3" font-family="Helvetica,sans-Serif" font-size="14.00">1</text>
<polygon fill="none" stroke="black" points="323,-165.5 323,-192.5 540,-192.5 540,-165.5 323,-165.5"/>
<text text-anchor="start" x="427.5" y="-175.3" font-family="Helvetica,sans-Serif" font-size="14.00">0</text>
<polygon fill="none" stroke="black" points="540,-165.5 540,-192.5 726,-192.5 726,-165.5 540,-165.5"/>
<text text-anchor="start" x="629" y="-175.3" font-family="Helvetica,sans-Serif" font-size="14.00">0</text>
<polygon fill="none" stroke="black" points="8,-138.5 8,-165.5 247,-165.5 247,-138.5 8,-138.5"/>
<text text-anchor="start" x="14" y="-148.3" font-family="Helvetica,sans-Serif" font-size="14.00">    Reserved (Z)</text>
<polygon fill="none" stroke="black" points="247,-138.5 247,-165.5 323,-165.5 323,-138.5 247,-138.5"/>
<text text-anchor="start" x="281" y="-148.3" font-family="Helvetica,sans-Serif" font-size="14.00">3</text>
<polygon fill="none" stroke="black" points="323,-138.5 323,-165.5 540,-165.5 540,-138.5 323,-138.5"/>
<text text-anchor="start" x="427.5" y="-148.3" font-family="Helvetica,sans-Serif" font-size="14.00">0</text>
<polygon fill="none" stroke="black" points="540,-138.5 540,-165.5 726,-165.5 726,-138.5 540,-138.5"/>
<text text-anchor="start" x="629" y="-148.3" font-family="Helvetica,sans-Serif" font-size="14.00">0</text>
<polygon fill="none" stroke="black" points="8,-111.5 8,-138.5 247,-138.5 247,-111.5 8,-111.5"/>
<text text-anchor="start" x="14" y="-121.3" font-family="Helvetica,sans-Serif" font-size="14.00">    Response Code (RCODE)</text>
<polygon fill="none" stroke="black" points="247,-111.5 247,-138.5 323,-138.5 323,-111.5 247,-111.5"/>
<text text-anchor="start" x="281" y="-121.3" font-family="Helvetica,sans-Serif" font-size="14.00">4</text>
<polygon fill="none" stroke="black" points="323,-111.5 323,-138.5 540,-138.5 540,-111.5 323,-111.5"/>
<text text-anchor="start" x="395.5" y="-121.3" font-family="Helvetica,sans-Serif" font-size="14.00">0 (No Error)</text>
<polygon fill="none" stroke="black" points="540,-111.5 540,-138.5 726,-138.5 726,-111.5 540,-111.5"/>
<text text-anchor="start" x="629" y="-121.3" font-family="Helvetica,sans-Serif" font-size="14.00">0</text>
<polygon fill="none" stroke="black" points="8,-84.5 8,-111.5 247,-111.5 247,-84.5 8,-84.5"/>
<text text-anchor="start" x="14" y="-94.3" font-family="Helvetica,sans-Serif" font-size="14.00">Question Count (QDCOUNT)</text>
<polygon fill="none" stroke="black" points="247,-84.5 247,-111.5 323,-111.5 323,-84.5 247,-84.5"/>
<text text-anchor="start" x="277" y="-94.3" font-family="Helvetica,sans-Serif" font-size="14.00">16</text>
<polygon fill="none" stroke="black" points="323,-84.5 323,-111.5 540,-111.5 540,-84.5 323,-84.5"/>
<text text-anchor="start" x="329" y="-94.3" font-family="Helvetica,sans-Serif" font-size="14.00">0 (per your list, often 1 in practice)</text>
<polygon fill="none" stroke="black" points="540,-84.5 540,-111.5 726,-111.5 726,-84.5 540,-84.5"/>
<text text-anchor="start" x="629" y="-94.3" font-family="Helvetica,sans-Serif" font-size="14.00">0</text>
<polygon fill="none" stroke="black" points="8,-57.5 8,-84.5 247,-84.5 247,-57.5 8,-57.5"/>
<text text-anchor="start" x="14" y="-67.3" font-family="Helvetica,sans-Serif" font-size="14.00">Answer Record Count (ANCOUNT)</text>
<polygon fill="none" stroke="black" points="247,-57.5 247,-84.5 323,-84.5 323,-57.5 247,-57.5"/>
<text text-anchor="start" x="277" y="-67.3" font-family="Helvetica,sans-Serif" font-size="14.00">16</text>
<polygon fill="none" stroke="black" points="323,-57.5 323,-84.5 540,-84.5 540,-57.5 323,-57.5"/>
<text text-anchor="start" x="427.5" y="-67.3" font-family="Helvetica,sans-Serif" font-size="14.00">0</text>
<polygon fill="none" stroke="black" points="540,-57.5 540,-84.5 726,-84.5 726,-57.5 540,-57.5"/>
<text text-anchor="start" x="629" y="-67.3" font-family="Helvetica,sans-Serif" font-size="14.00">0</text>
<polygon fill="none" stroke="black" points="8,-30.5 8,-57.5 247,-57.5 247,-30.5 8,-30.5"/>
<text text-anchor="start" x="14" y="-40.3" font-family="Helvetica,sans-Serif" font-size="14.00">Authority Record Count (NSCOUNT)</text>
<polygon fill="none" stroke="black" points="247,-30.5 247,-57.5 323,-57.5 323,-30.5 247,-30.5"/>
<text text-anchor="start" x="277" y="-40.3" font-family="Helvetica,sans-Serif" font-size="14.00">16</text>
<polygon fill="none" stroke="black" points="323,-30.5 323,-57.5 540,-57.5 540,-30.5 323,-30.5"/>
<text text-anchor="start" x="427.5" y="-40.3" font-family="Helvetica,sans-Serif" font-size="14.00">0</text>
<polygon fill="none" stroke="black" points="540,-30.5 540,-57.5 726,-57.5 726,-30.5 540,-30.5"/>
<text text-anchor="start" x="629" y="-40.3" font-family="Helvetica,sans-Serif" font-size="14.00">0</text>
<polygon fill="none" stroke="black" points="8,-3.5 8,-30.5 247,-30.5 247,-3.5 8,-3.5"/>
<text text-anchor="start" x="14" y="-13.3" font-family="Helvetica,sans-Serif" font-size="14.00">Additional Record Count (ARCOUNT)</text>
<polygon fill="none" stroke="black" points="247,-3.5 247,-30.5 323,-30.5 323,-3.5 247,-3.5"/>
<text text-anchor="start" x="277" y="-13.3" font-family="Helvetica,sans-Serif" font-size="14.00">16</text>
<polygon fill="none" stroke="black" points="323,-3.5 323,-30.5 540,-30.5 540,-3.5 323,-3.5"/>
<text text-anchor="start" x="427.5" y="-13.3" font-family="Helvetica,sans-Serif" font-size="14.00">0</text>
<polygon fill="none" stroke="black" points="540,-3.5 540,-30.5 726,-30.5 726,-3.5 540,-3.5"/>
<text text-anchor="start" x="629" y="-13.3" font-family="Helvetica,sans-Serif" font-size="14.00">0</text>
</g>
</g>
</svg>
